<svg width="200" height="200" xmlns="http://www.w3.org/2000/svg" class="icon">
 <defs>
  <style type="text/css"/>
 </defs>
 <g>
  <title>background</title>
  <rect height="202" width="202" y="-1" x="-1" fill="none" id="canvas_background"/>
 </g>
 <g>
  <title>Layer 1</title>
  <path d="m-0.047701,179.447495l0,-159.707296c0,-11.025974 8.950836,-19.962402 19.991208,-19.962402l159.920828,0c11.040756,0 19.989105,8.936428 19.989105,19.962402l0,159.707663c0,11.02594 -8.948349,19.964844 -19.989105,19.964844l-159.920828,0c-11.040372,-0.000366 -19.991208,-8.93924 -19.991208,-19.96521zm179.912035,-164.697717l-159.920828,0c-3.535196,0 -4.999575,1.462049 -4.999575,4.99042l0,159.707663c0,3.530487 1.464378,4.992889 4.999575,4.992889l164.918325,0l0,-164.700552c0,-3.528372 -1.464005,-4.99042 -4.997498,-4.99042z" fill="#ffffff" id="svg_1" class="selected"/>
  <path d="m27.364372,36.996532l0,25.786938c0,4.274345 3.502064,7.736832 7.824802,7.736832c4.32053,0 7.82259,-3.46286 7.82259,-7.736832l0,-20.629398l20.864796,0c4.320522,0 7.824787,-3.464676 7.824787,-7.737221s-3.504265,-7.735033 -7.824787,-7.735033l-26.080715,0c-5.761696,0 -10.431469,4.617508 -10.431469,10.314714l-0.000004,0zm146.047264,0l0,25.786938c0,4.274345 -3.502075,7.736832 -7.822617,7.736832s-7.824783,-3.46286 -7.824783,-7.736832l0,-20.629398l-20.862564,0c-4.322769,0 -7.824814,-3.464676 -7.824814,-7.737221s3.502045,-7.735033 7.824814,-7.735033l26.078476,0c5.761673,0 10.431488,4.617508 10.431488,10.314714zm-146.047264,123.782902l0,-25.789429c0,-4.27182 3.502064,-7.736862 7.824802,-7.736862c4.32053,0 7.82259,3.465042 7.82259,7.736862l0,20.631927l20.864796,0c4.320522,0 7.824787,3.46283 7.824787,7.735001c0,4.274353 -3.504265,7.737213 -7.824787,7.737213l-26.080715,0c-5.761696,0 -10.431469,-4.617889 -10.431469,-10.314713l-0.000004,0zm135.61541,10.314713l-26.078476,0c-4.322754,0 -7.824814,-3.462845 -7.824814,-7.737213c0,-4.272171 3.50206,-7.735001 7.824814,-7.735001l20.862564,0l0,-20.631927c0,-4.27182 3.503906,-7.736862 7.824783,-7.736862s7.822617,3.465042 7.822617,7.736862l0,25.789429c0.000381,5.696823 -4.669449,10.314713 -10.431488,10.314713z" fill="#ffffff" id="svg_2" class="selected"/>
 </g>
</svg>